<svg width="20" height="20" viewBox="0 0 20 20" fill="none" xmlns="http://www.w3.org/2000/svg">
<rect width="20" height="20" rx="10" fill="#90999E"/>
<path d="M7.53289 4.16406C5.44947 4.16406 3.75 5.86353 3.75 7.94696V12.8812C3.75 14.9643 5.44941 16.6641 7.53289 16.6641H12.4671C14.5503 16.6641 16.25 14.9644 16.25 12.8812V7.94696C16.25 5.86347 14.5502 4.16406 12.4671 4.16406H7.53289ZM7.53289 5.1509H12.4671C14.0169 5.1509 15.2632 6.39689 15.2632 7.94696V12.8812C15.2632 14.4309 14.0168 15.6772 12.4671 15.6772H7.53289C5.98283 15.6772 4.73684 14.4309 4.73684 12.8812V7.94696C4.73684 6.39683 5.98277 5.1509 7.53289 5.1509ZM13.2895 6.46669C12.926 6.46669 12.6316 6.7611 12.6316 7.12459C12.6316 7.48808 12.926 7.78248 13.2895 7.78248C13.653 7.78248 13.9474 7.48808 13.9474 7.12459C13.9474 6.7611 13.653 6.46669 13.2895 6.46669ZM10 7.12459C8.1892 7.12459 6.71053 8.60327 6.71053 10.4141C6.71053 12.2249 8.1892 13.7035 10 13.7035C11.8108 13.7035 13.2895 12.2249 13.2895 10.4141C13.2895 8.60327 11.8108 7.12459 10 7.12459ZM10 8.11143C11.2774 8.11143 12.3026 9.1367 12.3026 10.4141C12.3026 11.6914 11.2774 12.7167 10 12.7167C8.72264 12.7167 7.69737 11.6914 7.69737 10.4141C7.69737 9.1367 8.72264 8.11143 10 8.11143Z" fill="white"/>
</svg>
