<?xml version="1.0" encoding="UTF-8" standalone="no"?>
<svg
   width="20"
   height="20"
   viewBox="0 0 20 20"
   fill="none"
   version="1.1"
   id="svg4"
   sodipodi:docname="telegram.svg"
   inkscape:version="1.2.1 (9c6d41e410, 2022-07-14)"
   xmlns:inkscape="http://www.inkscape.org/namespaces/inkscape"
   xmlns:sodipodi="http://sodipodi.sourceforge.net/DTD/sodipodi-0.dtd"
   xmlns="http://www.w3.org/2000/svg"
   xmlns:svg="http://www.w3.org/2000/svg">
  <defs
     id="defs8" />
  <sodipodi:namedview
     id="namedview6"
     pagecolor="#ffffff"
     bordercolor="#000000"
     borderopacity="0.25"
     inkscape:showpageshadow="2"
     inkscape:pageopacity="0.0"
     inkscape:pagecheckerboard="0"
     inkscape:deskcolor="#d1d1d1"
     showgrid="false"
     inkscape:zoom="17.270833"
     inkscape:cx="-5.2400482"
     inkscape:cy="19.281062"
     inkscape:window-width="1920"
     inkscape:window-height="1009"
     inkscape:window-x="-8"
     inkscape:window-y="-8"
     inkscape:window-maximized="1"
     inkscape:current-layer="svg4" />
  <path
     d="m 10.031363,0.08926417 c 5.523,0 10,4.47696003 10,9.99999983 0,5.523 -4.477,10 -10,10 -5.5230399,0 -9.99999991,-4.477 -9.99999991,-10 0,-5.5230398 4.47696001,-9.99999983 9.99999991,-9.99999983 z m 3.4496,14.07609983 c 0.1839,-0.5644 1.0456,-6.1887098 1.1521,-7.2969698 0.0322,-0.33565 -0.0739,-0.5587 -0.2817,-0.65826 -0.2513,-0.12087 -0.6235,-0.06044 -1.0552,0.09522 -0.5922,0.21348 -8.1626299,3.42781 -8.6000199,3.61391 -0.41478,0.1760998 -0.80695,0.3682998 -0.80695,0.6464998 0,0.1957 0.11608,0.3057 0.43608,0.42 0.33305,0.1187 1.17174,0.3731 1.66696,0.5096 0.47696,0.1317 1.02,0.0174 1.32435,-0.1718 0.32261,-0.2004 4.0456799,-2.6916998 4.3130799,-2.9099998 0.2669,-0.2182 0.48,0.0614 0.2617,0.28 -0.2183,0.2183 -2.7738999,2.6986998 -3.1108999,3.0421998 -0.4091,0.417 -0.1187,0.8492 0.1557,1.0222 0.3135,0.1974 2.5677999,1.7096 2.9073999,1.9522 0.3395,0.2426 0.6839,0.3526 0.9991,0.3526 0.3152,0 0.4813,-0.4152 0.6383,-0.8974 z"
     fill="#90999e"
     id="path2" />
</svg>
