<svg width="20" height="20" viewBox="0 0 20 20" fill="none" xmlns="http://www.w3.org/2000/svg">
<path d="M17.9625 5.80156C17.8031 4.92187 17.0437 4.28125 16.1625 4.08125C14.8438 3.80156 12.4031 3.60156 9.7625 3.60156C7.12344 3.60156 4.64375 3.80156 3.32344 4.08125C2.44375 4.28125 1.68281 4.88125 1.52344 5.80156C1.3625 6.80156 1.20312 8.20156 1.20312 10.0016C1.20312 11.8016 1.3625 13.2016 1.5625 14.2016C1.72344 15.0813 2.48281 15.7219 3.3625 15.9219C4.7625 16.2016 7.1625 16.4016 9.80313 16.4016C12.4438 16.4016 14.8438 16.2016 16.2438 15.9219C17.1234 15.7219 17.8828 15.1219 18.0438 14.2016C18.2031 13.2016 18.4031 11.7609 18.4438 10.0016C18.3625 8.20156 18.1625 6.80156 17.9625 5.80156ZM7.60313 12.8016V7.20156L12.4828 10.0016L7.60313 12.8016Z" fill="#90999E"/>
</svg>
