<svg width="145" height="81" viewBox="0 0 145 81" fill="none" xmlns="http://www.w3.org/2000/svg">
<path d="M85.4482 59.8618C85.4482 61.0248 85.1297 61.9929 84.496 62.766C83.859 63.5392 83.0051 64.1141 81.9309 64.4974C80.8567 64.8806 79.6741 65.069 78.3831 65.069H68.2344V44.7656H79.8198C80.7957 44.7656 81.6429 45.02 82.3579 45.5222C83.0728 46.0278 83.6184 46.6787 84.0013 47.4815C84.3808 48.2811 84.574 49.1104 84.574 49.9695C84.574 50.9244 84.3198 51.833 83.8116 52.7019C83.3033 53.5709 82.5612 54.2218 81.5819 54.6612C82.7747 55.0048 83.7167 55.6161 84.4113 56.4917C85.106 57.3672 85.4516 58.4939 85.4516 59.8651L85.4482 59.8618ZM73.0427 48.7668V52.9696H77.763C78.1154 52.9696 78.4407 52.8936 78.7457 52.7416C79.0473 52.5896 79.298 52.355 79.4945 52.0411C79.6911 51.7272 79.7893 51.3308 79.7893 50.855C79.7893 50.3792 79.7046 50.0157 79.5386 49.7118C79.3726 49.4078 79.1523 49.1732 78.8778 49.0113C78.6033 48.8494 78.2916 48.7668 77.9392 48.7668H73.0427ZM80.5518 58.9168C80.5518 58.4774 80.4637 58.0908 80.2875 57.7604C80.1113 57.4267 79.8808 57.1591 79.5996 56.9608C79.3149 56.7593 78.9795 56.6602 78.5864 56.6602H73.0427V61.0942H78.3797C78.7897 61.0942 79.1557 60.9984 79.481 60.8067C79.8029 60.6151 80.0638 60.3574 80.257 60.0336C80.4535 59.7098 80.5518 59.3365 80.5518 58.9168Z" fill="#131415"/>
<path d="M104.649 48.8825H98.3127V65.069H93.5043V48.8825H87.1406V44.7656H104.649V48.8825Z" fill="#131415"/>
<path d="M106.344 54.7207C106.344 53.4982 106.574 52.2988 107.038 51.1259C107.503 49.9497 108.177 48.8825 109.061 47.9243C109.949 46.9661 111.027 46.1996 112.301 45.6247C113.575 45.0498 115.018 44.7656 116.638 44.7656C118.566 44.7656 120.24 45.1687 121.657 45.9782C123.073 46.7877 124.13 47.8384 124.822 49.1369L121.179 51.6182C120.87 50.9045 120.46 50.3495 119.949 49.953C119.437 49.5565 118.878 49.2823 118.271 49.1204C117.665 48.9618 117.082 48.8792 116.523 48.8792C115.615 48.8792 114.825 49.0543 114.151 49.4012C113.477 49.7481 112.918 50.214 112.474 50.7955C112.03 51.377 111.701 52.0279 111.491 52.7416C111.277 53.4553 111.172 54.1689 111.172 54.8859C111.172 55.6756 111.298 56.4355 111.549 57.169C111.799 57.9025 112.162 58.5501 112.633 59.1151C113.104 59.6801 113.68 60.1261 114.354 60.4532C115.029 60.7836 115.771 60.9455 116.581 60.9455C117.16 60.9455 117.746 60.853 118.346 60.6647C118.942 60.4763 119.498 60.1823 120.01 59.7759C120.521 59.3728 120.911 58.8408 121.182 58.1833L125.059 60.4103C124.655 61.3883 123.988 62.2242 123.063 62.9213C122.138 63.6185 121.091 64.1471 119.925 64.5139C118.759 64.8806 117.607 65.0624 116.469 65.0624C114.985 65.0624 113.619 64.765 112.375 64.1736C111.132 63.5821 110.061 62.7925 109.166 61.8046C108.272 60.8167 107.577 59.7098 107.086 58.4774C106.595 57.245 106.347 55.9928 106.347 54.7141L106.344 54.7207Z" fill="#131415"/>
<path d="M143.948 59.8618C143.948 61.0248 143.63 61.9929 142.996 62.766C142.359 63.5392 141.505 64.1141 140.431 64.4974C139.357 64.8806 138.174 65.069 136.883 65.069H126.734V44.7656H138.32C139.296 44.7656 140.143 45.02 140.858 45.5222C141.573 46.0278 142.118 46.6787 142.501 47.4815C142.881 48.2811 143.074 49.1104 143.074 49.9695C143.074 50.9244 142.82 51.833 142.312 52.7019C141.803 53.5709 141.061 54.2218 140.082 54.6612C141.275 55.0048 142.217 55.6161 142.911 56.4917C143.606 57.3672 143.952 58.4939 143.952 59.8651L143.948 59.8618ZM131.543 48.7668V52.9696H136.263C136.615 52.9696 136.941 52.8936 137.246 52.7416C137.547 52.5896 137.798 52.355 137.995 52.0411C138.191 51.7272 138.289 51.3308 138.289 50.855C138.289 50.3792 138.205 50.0157 138.039 49.7118C137.873 49.4078 137.652 49.1732 137.378 49.0113C137.103 48.8494 136.792 48.7668 136.439 48.7668H131.543ZM139.052 58.9168C139.052 58.4774 138.964 58.0908 138.787 57.7604C138.611 57.4267 138.381 57.1591 138.1 56.9608C137.815 56.7593 137.479 56.6602 137.086 56.6602H131.543V61.0942H136.88C137.29 61.0942 137.656 60.9984 137.981 60.8067C138.303 60.6151 138.564 60.3574 138.757 60.0336C138.954 59.7098 139.052 59.3365 139.052 58.9168Z" fill="#131415"/>
<path d="M10.0776 49.9141L28.186 60.107V71.4531L0 55.5871L10.0776 49.9141Z" fill="#FFB500"/>
<path d="M10.0776 29.5246V49.9138L0 55.5869V23.8516L10.0776 29.5246Z" fill="#FF9E1B"/>
<path d="M57.3514 23.2969V65.615L37.5859 76.7397V34.4216L57.3514 23.2969Z" fill="#FF9E1B"/>
<path d="M57.3513 23.2919L19.7654 2.13281L0 13.2608L37.5858 34.4199L57.3513 23.2919Z" fill="#FFB500"/>
</svg>
