<svg width="48" height="28" viewBox="0 0 48 28" fill="none" xmlns="http://www.w3.org/2000/svg">
<rect width="48" height="28" rx="6" fill="#DCDEE0"/>
<rect x="3" y="4" width="20" height="20" rx="4" fill="white"/>
<g clip-path="url(#clip0_1_2780)">
<path d="M13.0005 17.6885C15.0373 17.6885 16.6885 16.0373 16.6885 14.0005C16.6885 11.9637 15.0373 10.3125 13.0005 10.3125C10.9637 10.3125 9.3125 11.9637 9.3125 14.0005C9.3125 16.0373 10.9637 17.6885 13.0005 17.6885Z" fill="#131415"/>
<path d="M6.98021 18.4397L8.40625 19.8984L9.93939 18.3997L8.51335 16.9409L6.98021 18.4397Z" fill="#131415"/>
<path d="M5.60127 12.8898L5.57812 14.9297L7.72199 14.954L7.74513 12.9141L5.60127 12.8898Z" fill="#131415"/>
<path d="M8.55252 7.98802L7.09375 9.41406L8.59249 10.9472L10.0513 9.52116L8.55252 7.98802Z" fill="#131415"/>
<path d="M14.1024 6.60127L12.0625 6.57812L12.0382 8.72199L14.078 8.74513L14.1024 6.60127Z" fill="#131415"/>
<path d="M19.0042 9.55252L17.5781 8.09375L16.045 9.59249L17.471 11.0513L19.0042 9.55252Z" fill="#131415"/>
<path d="M20.3909 15.1024L20.4141 13.0625L18.2702 13.0382L18.2471 15.078L20.3909 15.1024Z" fill="#131415"/>
<path d="M17.4475 20.0042L18.9062 18.5781L17.4075 17.045L15.9487 18.471L17.4475 20.0042Z" fill="#131415"/>
<path d="M11.882 21.3909L13.9219 21.4141L13.9462 19.2702L11.9063 19.2471L11.882 21.3909Z" fill="#131415"/>
</g>
<defs>
<clipPath id="clip0_1_2780">
<rect width="16" height="16" fill="white" transform="translate(5 6)"/>
</clipPath>
</defs>
</svg>
